<svg xmlns="http://www.w3.org/2000/svg" width="800" height="800" viewBox="0 0 800 800" version="1.1"><path d="M 356.500 71.969 C 354.850 72.371, 350.754 72.484, 347.398 72.220 C 341.541 71.758, 341.139 71.879, 337.398 75.239 C 335.254 77.164, 327.070 82.044, 319.210 86.082 L 304.921 93.426 295.710 93.374 C 250.047 93.121, 247.218 92.881, 243.068 88.914 C 240.710 86.661, 239.052 85.987, 235.759 85.942 C 233.417 85.910, 216.650 85.579, 198.500 85.208 C 165.582 84.534, 121.434 84.513, 94.044 85.159 L 79.588 85.500 77.750 91.500 C 75.370 99.269, 75.193 112.522, 77.361 120.645 C 80.382 131.970, 81.183 145.823, 80.070 167.539 C 78.955 189.282, 76.166 209.956, 72.723 222 C 71.051 227.849, 70.600 232.032, 70.672 241 C 70.785 254.924, 73.328 275.004, 75.964 282.792 C 80.220 295.360, 83.477 310.901, 84.602 324.003 C 85.071 329.469, 84.774 333.631, 83.505 339.334 C 82.299 344.753, 81.897 349.831, 82.199 355.831 C 82.679 365.377, 83.872 368.465, 90.137 376.381 C 93.810 381.021, 94 381.615, 94 388.449 C 94 402.708, 89.304 410.636, 79.377 413.135 L 74.805 414.286 75.414 419.393 C 75.748 422.202, 76.469 436.425, 77.016 451 C 77.562 465.575, 78.412 479.198, 78.904 481.273 C 80.144 486.497, 82.395 489.615, 87.550 493.248 C 90.436 495.282, 92.376 497.595, 93.154 499.930 C 94.708 504.590, 94.482 517.169, 92.511 535.628 C 90.034 558.825, 89.572 560.693, 84.949 566.175 C 82.722 568.817, 79.835 573.346, 78.534 576.239 L 76.169 581.500 77.045 609.500 C 77.526 624.900, 78.347 641.602, 78.870 646.616 C 79.451 652.200, 79.469 659.369, 78.915 665.116 C 78.418 670.277, 77.722 679.057, 77.368 684.627 L 76.725 694.754 82.613 696.969 C 97.230 702.471, 109.674 703.634, 131.475 701.537 C 143.689 700.362, 152.805 700.086, 163.975 700.553 C 174.194 700.980, 181.660 700.806, 185.821 700.044 C 191.124 699.073, 192.909 699.141, 196.907 700.469 C 200.814 701.767, 203.437 701.890, 211.458 701.153 C 219.125 700.448, 222.663 700.577, 227.803 701.750 C 233.414 703.030, 236.691 703.072, 250.432 702.041 C 283.099 699.590, 284.975 699.583, 290.787 701.896 C 294.666 703.440, 298.279 704, 304.356 704 C 308.928 704, 314.977 704.695, 317.863 705.552 C 323.042 707.090, 323.115 707.081, 326.121 704.552 C 327.789 703.148, 330.379 702, 331.876 702 C 334.080 702, 334.839 702.667, 335.864 705.501 C 337.762 710.750, 348.243 724.356, 352.175 726.676 L 355.625 728.711 358.145 726.606 C 359.531 725.447, 361.939 722.786, 363.496 720.691 C 368.944 713.362, 375.257 712.415, 388.225 716.983 C 394.044 719.033, 401.876 719.517, 405.500 718.050 C 407.113 717.397, 408.291 718.128, 411.584 721.823 C 416.957 727.851, 419.949 727.831, 431.304 721.692 C 435.889 719.213, 442.083 716.435, 445.070 715.519 C 451.983 713.399, 484.330 711.903, 506.500 712.677 C 515.300 712.984, 529.925 712.744, 539 712.144 C 554.869 711.094, 555.763 710.919, 562.364 707.560 C 568.959 704.204, 569.346 704.127, 572.228 705.618 C 579.693 709.478, 583.784 710.247, 601 711.028 C 654.042 713.434, 652.711 713.419, 655.405 711.654 C 656.794 710.744, 659.494 710, 661.406 710 C 665.453 710, 666.079 709.331, 664.915 706.250 C 664.285 704.584, 663.261 704, 660.966 704 C 658.192 704, 657.900 703.719, 658.184 701.316 C 658.612 697.686, 661.657 696.936, 676.500 696.808 C 690.620 696.686, 704.735 699.665, 718.631 705.700 C 723.233 707.699, 727.256 709.077, 727.571 708.762 C 728.337 707.997, 728.550 667.135, 728.261 576.518 C 728.097 525.114, 728.371 499.535, 729.130 495.172 C 729.759 491.563, 729.916 486.794, 729.493 484.154 C 729.083 481.595, 728.467 471.625, 728.124 462 L 727.500 444.500 717.249 444.500 C 710.897 444.500, 706.998 444.109, 706.999 443.473 C 707.001 441.314, 710.013 438.298, 713.927 436.533 C 716.167 435.523, 718 433.997, 718 433.143 C 718 432.289, 718.723 422.794, 719.606 412.045 C 721.423 389.944, 720.975 375.196, 718.162 364.482 C 715.994 356.229, 715.206 354.643, 709.270 346.585 C 703.291 338.470, 699.856 331.557, 700.685 329.304 C 701.050 328.312, 703.775 324.575, 706.741 321 C 711.678 315.048, 712.073 314.205, 711.429 311 C 711.042 309.075, 710.675 305.700, 710.613 303.500 C 710.501 299.522, 710.537 299.482, 717.217 296.265 C 720.912 294.486, 724.706 291.851, 725.650 290.411 C 728.226 286.479, 729.259 258.293, 728.632 209 C 728.109 167.801, 727.296 154.689, 724.464 141.781 C 723.050 135.334, 723.091 134.673, 725.488 125.448 C 727.847 116.371, 727.919 115.334, 726.773 106.923 L 725.560 98.014 720.502 96.544 C 717.435 95.652, 714.275 93.830, 712.472 91.914 C 707.294 86.408, 704.567 85.822, 680.829 85.106 C 662.302 84.548, 658.882 84.203, 657.251 82.727 C 656.201 81.777, 653.935 81, 652.214 81 C 649.778 81, 648.467 81.818, 646.293 84.692 C 642.345 89.911, 638.020 94, 636.446 94 C 635.658 94, 634.403 91.505, 633.408 87.958 C 632.465 84.596, 630.942 81.504, 629.973 80.986 C 625.198 78.430, 554.234 73.432, 524.500 73.558 C 507.545 73.629, 503.950 76.364, 502.228 90.500 L 501.498 96.500 495.999 97.199 C 492.975 97.583, 486.383 98.209, 481.352 98.589 C 472.983 99.223, 471.948 99.099, 469.197 97.140 C 467.363 95.834, 465.665 93.341, 464.845 90.749 C 463.770 87.354, 462.998 86.460, 461 86.299 C 459.625 86.188, 454.597 85.813, 449.827 85.465 C 445.057 85.118, 440.425 84.300, 439.533 83.648 C 438.059 82.570, 438.119 82.086, 440.192 78.301 C 441.446 76.012, 442.214 73.880, 441.898 73.565 C 441.582 73.249, 434.164 72.510, 425.412 71.923 C 413.420 71.118, 407.145 71.153, 399.939 72.065 C 392.606 72.993, 387.121 73.010, 376.405 72.138 C 361.187 70.899, 360.896 70.896, 356.500 71.969 M 184.500 181.410 C 182.300 182.112, 175.775 184.874, 170 187.549 C 164.225 190.224, 156.037 193.339, 151.805 194.472 L 144.110 196.530 146.074 200.916 C 148.065 205.364, 149.892 207.289, 210.792 269.127 C 225.756 284.321, 238 297.335, 238 298.045 C 238 298.756, 254.555 316.024, 274.789 336.418 C 295.023 356.813, 313.782 375.975, 316.476 379 C 331.657 396.046, 363.845 429.408, 373 437.586 C 375.475 439.796, 387.306 452.264, 399.291 465.292 C 411.276 478.320, 422.526 490.094, 424.291 491.457 C 426.056 492.819, 430.275 495.984, 433.667 498.489 C 437.969 501.667, 440.810 504.778, 443.060 508.773 C 444.833 511.923, 449.508 517.875, 453.447 522 C 457.386 526.125, 466.949 536.475, 474.698 545 C 482.446 553.525, 490.235 561.850, 492.005 563.500 C 493.775 565.150, 500.685 572.575, 507.360 580 C 521.708 595.959, 528.407 602.466, 532.500 604.418 C 537.574 606.838, 551.402 608.870, 577.478 611.030 C 603.725 613.204, 607.690 613.083, 612.838 609.953 C 617.631 607.038, 632.614 575.968, 637.890 558 C 649.655 517.943, 655 495.856, 655 487.302 C 655 487.164, 653.637 486.347, 651.971 485.485 C 650.305 484.624, 642.768 479.276, 635.221 473.602 C 627.675 467.928, 619.025 461.701, 616 459.766 C 612.975 457.830, 608.320 454.442, 605.655 452.236 C 602.513 449.635, 599.371 447.995, 596.718 447.571 C 590.316 446.547, 586.859 444.465, 576.574 435.438 C 571.306 430.814, 564.634 425.838, 561.748 424.380 C 556.668 421.813, 535.949 408.273, 519.852 397 C 489.160 375.507, 471.112 363.400, 459.231 356.334 C 451.679 351.842, 441 344.828, 435.500 340.746 C 425.933 333.645, 358.283 287.493, 340.596 276 C 322.782 264.425, 319.753 262.409, 315.688 259.426 C 313.385 257.735, 308.350 255.263, 304.500 253.933 C 299.829 252.318, 296.003 250.137, 293 247.376 C 290.253 244.850, 285.383 241.962, 280.500 239.963 C 271.160 236.139, 264.492 230.139, 263.458 224.627 C 262.856 221.416, 261.501 220.366, 243.656 209.279 C 233.120 202.733, 222.379 196.158, 219.788 194.668 C 217.196 193.179, 212.924 190.098, 210.294 187.822 C 201.661 180.350, 193.884 178.416, 184.500 181.410 M 556 186.086 C 554.075 187.089, 541.025 190.848, 527 194.439 C 505.387 199.973, 482.323 205.962, 466.750 210.084 C 462.025 211.335, 461.995 213.144, 466.642 216.707 C 468.646 218.243, 472.677 221.616, 475.601 224.203 C 478.525 226.789, 482.201 229.570, 483.770 230.381 C 485.339 231.192, 491.828 236.284, 498.191 241.695 C 504.554 247.107, 513.739 254.226, 518.602 257.517 C 523.465 260.808, 530.128 265.723, 533.408 268.441 C 536.688 271.158, 546.375 278.067, 554.936 283.794 C 563.496 289.521, 572.075 295.685, 574 297.493 C 578.600 301.813, 583.097 304, 587.379 304 C 593.843 304, 594.458 302.390, 595.974 281.500 C 596.619 272.613, 597.763 265.653, 599.592 259.500 C 605.201 240.626, 605.984 236.071, 605.992 222.250 C 605.999 211.498, 605.734 209, 604.587 209 C 603.810 209, 598.073 205.574, 591.837 201.387 C 581.414 194.388, 562.085 183.822, 560.268 184.131 C 559.846 184.202, 557.925 185.082, 556 186.086 M 180.743 495.750 C 173.317 513.212, 166.477 529.525, 165.542 532 C 164.607 534.475, 161.628 541.516, 158.921 547.647 C 154.444 557.789, 154 559.477, 154 566.350 C 154 575.864, 155.075 578.183, 160.812 581.049 C 163.346 582.314, 167.648 585.521, 170.372 588.175 C 173.097 590.829, 175.894 593, 176.588 593 C 177.283 593, 182.497 597.193, 188.175 602.317 C 193.854 607.442, 200.480 613.067, 202.900 614.817 L 207.300 618 225.756 618 C 245.780 618, 252.153 616.983, 261.357 612.319 C 269.042 608.425, 273.608 606.998, 284.901 604.963 C 291.822 603.716, 297.677 601.927, 302.401 599.618 C 306.305 597.708, 312.718 595.183, 316.651 594.006 C 320.584 592.829, 324.565 591.307, 325.498 590.625 C 327.056 589.486, 326.965 589.112, 324.383 586.044 C 322.837 584.207, 309.406 571.657, 294.536 558.157 C 279.666 544.656, 254 520.247, 237.500 503.914 C 208.823 475.527, 196.539 464, 194.967 464 C 194.570 464, 188.169 478.288, 180.743 495.750" stroke="none" fill="#f3412c" fill-rule="evenodd"/></svg>