<svg xmlns="http://www.w3.org/2000/svg" width="2272" height="1704" viewBox="0 0 2272 1704" version="1.1"><path d="M 903.500 678.666 C 880.478 679.773, 854.836 682.971, 835.732 687.120 C 786.398 697.832, 748.532 720.088, 699 767.486 C 686.634 779.319, 590.151 874.963, 497 967.732 L 439.500 1024.995 538.500 1024.991 L 637.500 1024.988 683.097 980.744 C 768.734 897.648, 804.498 863.226, 812.324 856.362 C 825.468 844.834, 838.936 835.347, 851 829.118 C 870.989 818.797, 884.249 815.249, 919.500 810.790 C 925.960 809.973, 1002.537 809.552, 1190.877 809.299 C 1449.709 808.951, 1453.287 808.919, 1455.746 806.985 C 1457.931 805.266, 1523.605 741.053, 1571 694.295 L 1587.500 678.016 1248.500 678.197 C 1062.050 678.297, 906.800 678.508, 903.500 678.666 M 1439 851.500 L 1265.502 1025 1375.249 1025 L 1484.996 1025 1658.748 851.537 L 1832.500 678.074 1722.499 678.037 L 1612.498 678 1439 851.500 M 948.500 828.672 C 917.423 829.919, 893.753 833.356, 876.888 839.072 C 865.523 842.924, 849.508 851.924, 838.287 860.765 C 831.020 866.490, 802.049 894.669, 749.500 947.123 L 671.500 1024.984 763.446 1024.992 L 855.392 1025 882.946 997.698 C 898.101 982.682, 912.750 968.780, 915.500 966.804 C 928.179 957.694, 940.517 953.661, 960.726 952.020 C 968.611 951.380, 1036.457 951, 1142.898 951 L 1312.506 951 1373.253 890.247 C 1406.664 856.833, 1434 829.158, 1434 828.747 C 1434 828.074, 965.226 828.002, 948.500 828.672 M 1572.390 982.427 C 1572.088 983.212, 1571.990 984.900, 1572.171 986.177 C 1572.473 988.310, 1573.051 988.524, 1579.250 988.796 L 1586 989.091 1586 1007.046 L 1586 1025 1590.500 1025 L 1595 1025 1595 1007 L 1595 989 1602 989 L 1609 989 1609 985 L 1609 981 1590.969 981 C 1576.272 981, 1572.836 981.264, 1572.390 982.427 M 1612.710 981.623 C 1612.320 982.014, 1612 991.933, 1612 1003.667 L 1612 1025 1616.500 1025 L 1621 1025 1621.055 1010.250 L 1621.110 995.500 1626.364 1010 L 1631.618 1024.500 1635.583 1024.796 L 1639.548 1025.093 1645.217 1009.796 L 1650.885 994.500 1650.943 1009.750 L 1651 1025 1655 1025 L 1659 1025 1659 1003 L 1659 981 1653.125 981 L 1647.251 981 1641.876 997 C 1638.919 1005.800, 1636.275 1012.997, 1636 1012.994 C 1635.725 1012.990, 1632.986 1005.902, 1629.913 997.244 L 1624.326 981.500 1618.873 981.206 C 1615.874 981.045, 1613.101 981.232, 1612.710 981.623" stroke="none" fill="#ff1c04" fill-rule="evenodd"/><path d="" stroke="none" fill="#fc1c04" fill-rule="evenodd"/></svg>